<?xml version="1.0" encoding="utf-8"?>
<!-- Generator: Adobe Illustrator 24.0.2, SVG Export Plug-In . SVG Version: 6.00 Build 0)  -->
<svg version="1.1" id="Bold" xmlns="http://www.w3.org/2000/svg" xmlns:xlink="http://www.w3.org/1999/xlink" x="0px" y="0px"
	 viewBox="0 0 20 20" style="enable-background:new 0 0 20 20;" xml:space="preserve">
<style type="text/css">
	.st0{fill:#383838;}
</style>
<g>
	<path class="st0" d="M18.7,17.4l-4.2-4.2c1-1.3,1.7-2.9,1.7-4.6c0-4-3.3-7.3-7.3-7.3c-4,0-7.3,3.3-7.3,7.3s3.3,7.3,7.3,7.3
		c1.8,0,3.4-0.6,4.6-1.7l4.2,4.2c0.3,0.3,0.7,0.3,1,0C19,18.2,19,17.7,18.7,17.4z M8.9,14.5C5.6,14.5,3,11.9,3,8.6s2.6-5.9,5.9-5.9
		c3.2,0,5.9,2.6,5.9,5.9S12.1,14.5,8.9,14.5z"/>
</g>
</svg>
